<?xml version="1.0" encoding="UTF-8"?>
<!DOCTYPE svg PUBLIC "-//W3C//DTD SVG 1.1//EN" "http://www.w3.org/Graphics/SVG/1.1/DTD/svg11.dtd">
<svg xmlns="http://www.w3.org/2000/svg" version="1.1" width="683px" height="690px" style="shape-rendering:geometricPrecision; text-rendering:geometricPrecision; image-rendering:optimizeQuality; fill-rule:evenodd; clip-rule:evenodd" xmlns:xlink="http://www.w3.org/1999/xlink">
<g><path style="opacity:0.997" fill="#252525" d="M 181.5,-0.5 C 287.833,-0.5 394.167,-0.5 500.5,-0.5C 577.083,10.0347 632.249,50.0347 666,119.5C 674.342,139.544 679.842,160.21 682.5,181.5C 682.5,290.167 682.5,398.833 682.5,507.5C 669.707,595.132 621.374,653.298 537.5,682C 525.169,685.232 512.836,687.732 500.5,689.5C 394.167,689.5 287.833,689.5 181.5,689.5C 104.917,678.965 49.7506,638.965 16,569.5C 7.65768,549.456 2.15768,528.79 -0.5,507.5C -0.5,398.833 -0.5,290.167 -0.5,181.5C 12.2926,93.8684 60.6259,35.7017 144.5,7C 156.831,3.76758 169.164,1.26758 181.5,-0.5 Z"/></g>
<g><path style="opacity:1" fill="#fefefe" d="M 216.5,141.5 C 315.501,141.333 414.501,141.5 513.5,142C 524.838,145.085 527.672,151.919 522,162.5C 492,195.167 462,227.833 432,260.5C 431.667,354.167 431.333,447.833 431,541.5C 430.167,547.667 426.667,551.167 420.5,552C 321.167,552.667 221.833,552.667 122.5,552C 116.374,551.208 112.874,547.708 112,541.5C 111.833,493.833 111.667,446.167 111.5,398.5C 111.345,349.13 111.845,299.797 113,250.5C 145.465,214.367 178.298,178.534 211.5,143C 213.382,142.802 215.048,142.302 216.5,141.5 Z"/></g>
<g><path style="opacity:1" fill="#9d87f2" d="M 559.5,210.5 C 557.97,211.067 556.47,211.733 555,212.5C 553.853,211.542 552.853,211.875 552,213.5C 550.609,211.285 548.943,211.285 547,213.5C 544.703,213.461 542.37,213.128 540,212.5C 537.43,213.009 535.097,214.009 533,215.5C 528.549,214.608 524.715,214.608 521.5,215.5C 533.418,200.743 545.918,186.409 559,172.5C 559.5,185.162 559.667,197.829 559.5,210.5 Z"/></g>
<g><path style="opacity:1" fill="#a992f5" d="M 559.5,210.5 C 559.5,219.167 559.5,227.833 559.5,236.5C 558.518,237.141 557.518,237.807 556.5,238.5C 554.329,238.273 552.162,237.94 550,237.5C 548.057,239.715 546.391,239.715 545,237.5C 544.167,238.5 543.333,239.5 542.5,240.5C 541.304,240.154 541.304,239.654 542.5,239C 541.833,238.833 541.167,238.667 540.5,238.5C 536.181,240.27 532.014,241.603 528,242.5C 527.374,240.009 526.541,240.009 525.5,242.5C 523.139,241.224 520.972,241.558 519,243.5C 516.667,240.833 514.333,240.833 512,243.5C 508.857,242.554 505.857,242.554 503,243.5C 502,244.167 501,244.833 500,245.5C 499,244.167 498,244.167 497,245.5C 496.536,244.906 496.369,244.239 496.5,243.5C 504.374,233.749 512.707,224.416 521.5,215.5C 524.715,214.608 528.549,214.608 533,215.5C 535.097,214.009 537.43,213.009 540,212.5C 542.37,213.128 544.703,213.461 547,213.5C 548.943,211.285 550.609,211.285 552,213.5C 552.853,211.875 553.853,211.542 555,212.5C 556.47,211.733 557.97,211.067 559.5,210.5 Z"/></g>
<g><path style="opacity:1" fill="#b199f6" d="M 559.5,236.5 C 559.5,240.5 559.5,244.5 559.5,248.5C 556.629,249.679 553.796,249.679 551,248.5C 549.108,249.13 547.441,250.13 546,251.5C 544.684,248.972 543.517,248.972 542.5,251.5C 541.033,251.277 539.533,250.944 538,250.5C 537.5,251 537,251.5 536.5,252C 533.574,252.218 530.74,252.718 528,253.5C 526.286,252.075 524.953,252.408 524,254.5C 522.899,252.606 521.566,251.939 520,252.5C 518.604,254.527 516.938,254.86 515,253.5C 514.333,254.167 513.667,254.833 513,255.5C 511.333,255.167 509.667,254.833 508,254.5C 503.569,255.067 499.236,256.067 495,257.5C 493.883,257.335 492.716,257.002 491.5,256.5C 490.833,257.167 490.167,257.833 489.5,258.5C 488.5,257.167 487.5,257.167 486.5,258.5C 485.702,258.043 485.369,257.376 485.5,256.5C 488.821,251.848 492.487,247.515 496.5,243.5C 496.369,244.239 496.536,244.906 497,245.5C 498,244.167 499,244.167 500,245.5C 501,244.833 502,244.167 503,243.5C 505.857,242.554 508.857,242.554 512,243.5C 514.333,240.833 516.667,240.833 519,243.5C 520.972,241.558 523.139,241.224 525.5,242.5C 526.541,240.009 527.374,240.009 528,242.5C 532.014,241.603 536.181,240.27 540.5,238.5C 541.167,238.667 541.833,238.833 542.5,239C 541.304,239.654 541.304,240.154 542.5,240.5C 543.333,239.5 544.167,238.5 545,237.5C 546.391,239.715 548.057,239.715 550,237.5C 552.162,237.94 554.329,238.273 556.5,238.5C 557.518,237.807 558.518,237.141 559.5,236.5 Z"/></g>
<g><path style="opacity:1" fill="#b79ff7" d="M 559.5,248.5 C 559.5,252.833 559.5,257.167 559.5,261.5C 557.854,261.542 556.188,261.542 554.5,261.5C 553.23,262.562 552.063,263.562 551,264.5C 550.612,263.572 549.945,262.905 549,262.5C 546.367,263.656 543.7,264.656 541,265.5C 539.518,263.219 537.851,263.219 536,265.5C 533.608,264.575 530.942,264.241 528,264.5C 526.982,266.564 525.649,266.898 524,265.5C 522.739,265.759 521.739,266.426 521,267.5C 516.076,266.342 511.076,267.009 506,269.5C 505.228,269.355 504.561,269.022 504,268.5C 501.667,269.167 499.333,269.833 497,270.5C 496.667,269.833 496.333,269.167 496,268.5C 491.925,270.674 487.925,272.007 484,272.5C 479.641,271.784 475.474,271.784 471.5,272.5C 475.823,266.845 480.49,261.512 485.5,256.5C 485.369,257.376 485.702,258.043 486.5,258.5C 487.5,257.167 488.5,257.167 489.5,258.5C 490.167,257.833 490.833,257.167 491.5,256.5C 492.716,257.002 493.883,257.335 495,257.5C 499.236,256.067 503.569,255.067 508,254.5C 509.667,254.833 511.333,255.167 513,255.5C 513.667,254.833 514.333,254.167 515,253.5C 516.938,254.86 518.604,254.527 520,252.5C 521.566,251.939 522.899,252.606 524,254.5C 524.953,252.408 526.286,252.075 528,253.5C 530.74,252.718 533.574,252.218 536.5,252C 537,251.5 537.5,251 538,250.5C 539.533,250.944 541.033,251.277 542.5,251.5C 543.517,248.972 544.684,248.972 546,251.5C 547.441,250.13 549.108,249.13 551,248.5C 553.796,249.679 556.629,249.679 559.5,248.5 Z"/></g>
<g><path style="opacity:1" fill="#bea4f8" d="M 559.5,261.5 C 559.5,265.5 559.5,269.5 559.5,273.5C 557.908,272.398 557.075,273.065 557,275.5C 555.667,272.833 554.333,272.833 553,275.5C 550.816,276.108 548.816,275.441 547,273.5C 544.794,276.282 542.127,276.949 539,275.5C 537.289,275.439 535.956,276.106 535,277.5C 532.105,278.063 529.105,278.063 526,277.5C 525.374,279.991 524.541,279.991 523.5,277.5C 522.575,278.641 521.741,278.641 521,277.5C 519.667,280.167 518.333,280.167 517,277.5C 516.667,278.167 516.333,278.833 516,279.5C 514.043,278.146 512.043,278.479 510,280.5C 507.568,279.707 505.234,279.374 503,279.5C 501.057,280.315 499.057,281.315 497,282.5C 494.157,282.275 491.323,281.942 488.5,281.5C 488.511,282.441 488.011,283.108 487,283.5C 486.055,283.095 485.388,282.428 485,281.5C 484.309,283.891 483.309,283.891 482,281.5C 481.612,282.428 480.945,283.095 480,283.5C 476.381,283.614 472.714,283.614 469,283.5C 468.925,285.935 468.092,286.602 466.5,285.5C 465.239,279.861 466.906,275.528 471.5,272.5C 475.474,271.784 479.641,271.784 484,272.5C 487.925,272.007 491.925,270.674 496,268.5C 496.333,269.167 496.667,269.833 497,270.5C 499.333,269.833 501.667,269.167 504,268.5C 504.561,269.022 505.228,269.355 506,269.5C 511.076,267.009 516.076,266.342 521,267.5C 521.739,266.426 522.739,265.759 524,265.5C 525.649,266.898 526.982,266.564 528,264.5C 530.942,264.241 533.608,264.575 536,265.5C 537.851,263.219 539.518,263.219 541,265.5C 543.7,264.656 546.367,263.656 549,262.5C 549.945,262.905 550.612,263.572 551,264.5C 552.063,263.562 553.23,262.562 554.5,261.5C 556.188,261.542 557.854,261.542 559.5,261.5 Z"/></g>
<g><path style="opacity:1" fill="#c4a9f8" d="M 559.5,273.5 C 559.5,276.833 559.5,280.167 559.5,283.5C 557.147,283.864 554.814,285.197 552.5,287.5C 550.045,287.257 547.545,287.257 545,287.5C 542.525,285.248 539.859,285.248 537,287.5C 535.442,286.655 534.442,287.321 534,289.5C 531.695,289.421 529.195,289.254 526.5,289C 527.706,287.982 527.373,287.482 525.5,287.5C 521.901,288.502 518.068,289.835 514,291.5C 510.484,291.728 506.818,291.395 503,290.5C 501.166,292.756 499.499,292.756 498,290.5C 497.667,291.5 497.333,292.5 497,293.5C 494.565,290.772 492.565,291.106 491,294.5C 489.755,294.539 488.422,294.205 487,293.5C 486.055,293.905 485.388,294.572 485,295.5C 481.924,294.712 478.758,294.212 475.5,294C 478.063,293.237 478.063,292.737 475.5,292.5C 472.505,293.824 469.505,295.158 466.5,296.5C 466.5,292.833 466.5,289.167 466.5,285.5C 468.092,286.602 468.925,285.935 469,283.5C 472.714,283.614 476.381,283.614 480,283.5C 480.945,283.095 481.612,282.428 482,281.5C 483.309,283.891 484.309,283.891 485,281.5C 485.388,282.428 486.055,283.095 487,283.5C 488.011,283.108 488.511,282.441 488.5,281.5C 491.323,281.942 494.157,282.275 497,282.5C 499.057,281.315 501.057,280.315 503,279.5C 505.234,279.374 507.568,279.707 510,280.5C 512.043,278.479 514.043,278.146 516,279.5C 516.333,278.833 516.667,278.167 517,277.5C 518.333,280.167 519.667,280.167 521,277.5C 521.741,278.641 522.575,278.641 523.5,277.5C 524.541,279.991 525.374,279.991 526,277.5C 529.105,278.063 532.105,278.063 535,277.5C 535.956,276.106 537.289,275.439 539,275.5C 542.127,276.949 544.794,276.282 547,273.5C 548.816,275.441 550.816,276.108 553,275.5C 554.333,272.833 555.667,272.833 557,275.5C 557.075,273.065 557.908,272.398 559.5,273.5 Z"/></g>
<g><path style="opacity:1" fill="#cbaff9" d="M 559.5,283.5 C 559.5,288.167 559.5,292.833 559.5,297.5C 557.402,296.086 556.402,296.752 556.5,299.5C 553.402,299.587 553.068,299.087 555.5,298C 555,297.833 554.5,297.667 554,297.5C 552.467,298.695 550.967,298.695 549.5,297.5C 549.089,298.262 548.923,299.262 549,300.5C 546.672,298.562 544.339,298.895 542,301.5C 537.997,298.499 534.664,299.165 532,303.5C 529.942,302.891 529.109,301.891 529.5,300.5C 528.522,300.977 527.689,301.643 527,302.5C 523.129,301.593 519.463,301.259 516,301.5C 512.363,304.876 508.363,305.876 504,304.5C 503.374,306.991 502.541,306.991 501.5,304.5C 499.282,305.188 497.782,304.188 497,301.5C 494.667,304.167 492.333,304.167 490,301.5C 488.301,302.406 486.467,302.739 484.5,302.5C 484.716,304.681 483.883,306.347 482,307.5C 478.773,307.755 475.773,307.422 473,306.5C 472.692,307.308 472.192,307.975 471.5,308.5C 469.925,307.544 468.258,306.877 466.5,306.5C 466.5,303.167 466.5,299.833 466.5,296.5C 469.505,295.158 472.505,293.824 475.5,292.5C 478.063,292.737 478.063,293.237 475.5,294C 478.758,294.212 481.924,294.712 485,295.5C 485.388,294.572 486.055,293.905 487,293.5C 488.422,294.205 489.755,294.539 491,294.5C 492.565,291.106 494.565,290.772 497,293.5C 497.333,292.5 497.667,291.5 498,290.5C 499.499,292.756 501.166,292.756 503,290.5C 506.818,291.395 510.484,291.728 514,291.5C 518.068,289.835 521.901,288.502 525.5,287.5C 527.373,287.482 527.706,287.982 526.5,289C 529.195,289.254 531.695,289.421 534,289.5C 534.442,287.321 535.442,286.655 537,287.5C 539.859,285.248 542.525,285.248 545,287.5C 547.545,287.257 550.045,287.257 552.5,287.5C 554.814,285.197 557.147,283.864 559.5,283.5 Z"/></g>
<g><path style="opacity:1" fill="#d0b3f9" d="M 559.5,297.5 C 559.5,299.5 559.5,301.5 559.5,303.5C 555.401,304.942 551.567,306.942 548,309.5C 546.934,307.901 545.434,306.901 543.5,306.5C 542.808,307.025 542.308,307.692 542,308.5C 538.286,307.023 535.286,308.357 533,312.5C 531.965,309.214 530.465,308.88 528.5,311.5C 523.367,311.484 518.2,311.151 513,310.5C 511.373,310.625 509.873,311.125 508.5,312C 510.654,313.184 510.32,314.35 507.5,315.5C 506.667,314.5 505.833,313.5 505,312.5C 504.333,313.833 503.667,313.833 503,312.5C 501.333,313.167 499.667,313.833 498,314.5C 492.964,314.536 487.631,314.536 482,314.5C 480.445,316.146 478.779,316.479 477,315.5C 473.777,318.391 470.277,319.057 466.5,317.5C 466.5,313.833 466.5,310.167 466.5,306.5C 468.258,306.877 469.925,307.544 471.5,308.5C 472.192,307.975 472.692,307.308 473,306.5C 475.773,307.422 478.773,307.755 482,307.5C 483.883,306.347 484.716,304.681 484.5,302.5C 486.467,302.739 488.301,302.406 490,301.5C 492.333,304.167 494.667,304.167 497,301.5C 497.782,304.188 499.282,305.188 501.5,304.5C 502.541,306.991 503.374,306.991 504,304.5C 508.363,305.876 512.363,304.876 516,301.5C 519.463,301.259 523.129,301.593 527,302.5C 527.689,301.643 528.522,300.977 529.5,300.5C 529.109,301.891 529.942,302.891 532,303.5C 534.664,299.165 537.997,298.499 542,301.5C 544.339,298.895 546.672,298.562 549,300.5C 548.923,299.262 549.089,298.262 549.5,297.5C 550.967,298.695 552.467,298.695 554,297.5C 554.5,297.667 555,297.833 555.5,298C 553.068,299.087 553.402,299.587 556.5,299.5C 556.402,296.752 557.402,296.086 559.5,297.5 Z"/></g>
<g><path style="opacity:1" fill="#d6b8f9" d="M 559.5,303.5 C 559.5,308.167 559.5,312.833 559.5,317.5C 558.127,317.343 556.793,317.51 555.5,318C 556.711,318.893 556.711,319.726 555.5,320.5C 554.5,319.167 553.5,319.167 552.5,320.5C 551.377,318.711 550.044,318.378 548.5,319.5C 551.375,320.327 550.875,321.327 547,322.5C 545.765,321.385 544.598,321.385 543.5,322.5C 542.618,321.24 541.618,320.074 540.5,319C 538.951,319.522 537.451,319.355 536,318.5C 534.669,319.996 533.169,321.329 531.5,322.5C 530.808,321.975 530.308,321.308 530,320.5C 528.414,321.376 526.914,322.376 525.5,323.5C 524.833,322.833 524.167,322.167 523.5,321.5C 521.833,322.833 520.167,324.167 518.5,325.5C 515.616,325.63 512.616,325.13 509.5,324C 509.07,323.08 508.736,322.247 508.5,321.5C 506.973,323.193 505.64,325.027 504.5,327C 502.567,327.251 500.734,327.751 499,328.5C 497.16,326.83 495.326,325.163 493.5,323.5C 489.918,325.12 486.918,327.453 484.5,330.5C 481.236,329.535 478.236,329.535 475.5,330.5C 473.349,333.206 471.182,333.54 469,331.5C 468.667,332.167 468.333,332.833 468,333.5C 467.722,332.584 467.222,331.918 466.5,331.5C 466.5,326.833 466.5,322.167 466.5,317.5C 470.277,319.057 473.777,318.391 477,315.5C 478.779,316.479 480.445,316.146 482,314.5C 487.631,314.536 492.964,314.536 498,314.5C 499.667,313.833 501.333,313.167 503,312.5C 503.667,313.833 504.333,313.833 505,312.5C 505.833,313.5 506.667,314.5 507.5,315.5C 510.32,314.35 510.654,313.184 508.5,312C 509.873,311.125 511.373,310.625 513,310.5C 518.2,311.151 523.367,311.484 528.5,311.5C 530.465,308.88 531.965,309.214 533,312.5C 535.286,308.357 538.286,307.023 542,308.5C 542.308,307.692 542.808,307.025 543.5,306.5C 545.434,306.901 546.934,307.901 548,309.5C 551.567,306.942 555.401,304.942 559.5,303.5 Z"/></g>
<g><path style="opacity:1" fill="#dbbbf9" d="M 559.5,317.5 C 559.5,321.167 559.5,324.833 559.5,328.5C 556.927,329.657 554.427,330.991 552,332.5C 551.82,330.512 551.986,328.512 552.5,326.5C 548.836,326.203 545.67,327.203 543,329.5C 540.482,328.209 538.149,328.542 536,330.5C 534.535,329.67 533.035,329.504 531.5,330C 532.34,331.666 531.84,331.833 530,330.5C 529.535,331.931 528.701,333.097 527.5,334C 529.686,334.604 529.852,335.77 528,337.5C 526.526,334.675 525.026,334.342 523.5,336.5C 520.812,335.995 518.645,334.662 517,332.5C 514.852,333.977 513.518,335.977 513,338.5C 511.657,337.786 510.324,338.12 509,339.5C 506.566,337.977 503.899,336.977 501,336.5C 499.601,336.501 498.101,336.835 496.5,337.5C 494.833,336.833 493.167,336.167 491.5,335.5C 488.933,340.711 486.433,340.711 484,335.5C 483.667,336.167 483.333,336.833 483,337.5C 481.796,336.529 481.296,335.529 481.5,334.5C 480.5,335 479.5,335.5 478.5,336C 478.833,336.333 479.167,336.667 479.5,337C 477.92,339.295 475.92,340.628 473.5,341C 474.167,340 474.833,339 475.5,338C 472.538,338.692 469.538,338.526 466.5,337.5C 466.5,335.5 466.5,333.5 466.5,331.5C 467.222,331.918 467.722,332.584 468,333.5C 468.333,332.833 468.667,332.167 469,331.5C 471.182,333.54 473.349,333.206 475.5,330.5C 478.236,329.535 481.236,329.535 484.5,330.5C 486.918,327.453 489.918,325.12 493.5,323.5C 495.326,325.163 497.16,326.83 499,328.5C 500.734,327.751 502.567,327.251 504.5,327C 505.64,325.027 506.973,323.193 508.5,321.5C 508.736,322.247 509.07,323.08 509.5,324C 512.616,325.13 515.616,325.63 518.5,325.5C 520.167,324.167 521.833,322.833 523.5,321.5C 524.167,322.167 524.833,322.833 525.5,323.5C 526.914,322.376 528.414,321.376 530,320.5C 530.308,321.308 530.808,321.975 531.5,322.5C 533.169,321.329 534.669,319.996 536,318.5C 537.451,319.355 538.951,319.522 540.5,319C 541.618,320.074 542.618,321.24 543.5,322.5C 544.598,321.385 545.765,321.385 547,322.5C 550.875,321.327 551.375,320.327 548.5,319.5C 550.044,318.378 551.377,318.711 552.5,320.5C 553.5,319.167 554.5,319.167 555.5,320.5C 556.711,319.726 556.711,318.893 555.5,318C 556.793,317.51 558.127,317.343 559.5,317.5 Z"/></g>
<g><path style="opacity:1" fill="#e0bff9" d="M 559.5,328.5 C 559.5,333.167 559.5,337.833 559.5,342.5C 558.504,342.414 557.671,342.748 557,343.5C 556.667,342.833 556.333,342.167 556,341.5C 554.333,344.167 552.667,344.167 551,341.5C 549.333,344.167 547.667,344.167 546,341.5C 543.667,343.167 541.333,344.833 539,346.5C 538.751,345.376 538.251,344.376 537.5,343.5C 536.692,345.423 536.192,347.423 536,349.5C 535.667,348.5 535.333,347.5 535,346.5C 532.426,346.686 529.926,346.686 527.5,346.5C 525.443,348.531 523.61,348.531 522,346.5C 519.102,346.783 516.102,346.783 513,346.5C 512.581,347.672 511.915,348.672 511,349.5C 509.542,348.253 508.042,348.253 506.5,349.5C 505.936,345.621 504.436,345.621 502,349.5C 501.125,347.487 499.791,347.487 498,349.5C 497.667,349.167 497.333,348.833 497,348.5C 496.333,349.833 495.667,351.167 495,352.5C 493.513,351.747 493.346,350.914 494.5,350C 493.207,349.51 491.873,349.343 490.5,349.5C 490.719,350.675 490.386,351.675 489.5,352.5C 488.23,351.438 487.063,350.438 486,349.5C 485.085,350.328 484.419,351.328 484,352.5C 482.488,350.043 481.154,350.043 480,352.5C 477.371,352.072 475.038,351.072 473,349.5C 472.667,350.833 472.333,352.167 472,353.5C 471.667,353.167 471.333,352.833 471,352.5C 468.981,353.357 467.481,354.691 466.5,356.5C 466.5,350.167 466.5,343.833 466.5,337.5C 469.538,338.526 472.538,338.692 475.5,338C 474.833,339 474.167,340 473.5,341C 475.92,340.628 477.92,339.295 479.5,337C 479.167,336.667 478.833,336.333 478.5,336C 479.5,335.5 480.5,335 481.5,334.5C 481.296,335.529 481.796,336.529 483,337.5C 483.333,336.833 483.667,336.167 484,335.5C 486.433,340.711 488.933,340.711 491.5,335.5C 493.167,336.167 494.833,336.833 496.5,337.5C 498.101,336.835 499.601,336.501 501,336.5C 503.899,336.977 506.566,337.977 509,339.5C 510.324,338.12 511.657,337.786 513,338.5C 513.518,335.977 514.852,333.977 517,332.5C 518.645,334.662 520.812,335.995 523.5,336.5C 525.026,334.342 526.526,334.675 528,337.5C 529.852,335.77 529.686,334.604 527.5,334C 528.701,333.097 529.535,331.931 530,330.5C 531.84,331.833 532.34,331.666 531.5,330C 533.035,329.504 534.535,329.67 536,330.5C 538.149,328.542 540.482,328.209 543,329.5C 545.67,327.203 548.836,326.203 552.5,326.5C 551.986,328.512 551.82,330.512 552,332.5C 554.427,330.991 556.927,329.657 559.5,328.5 Z"/></g>
<g><path style="opacity:1" fill="#e5c4f8" d="M 559.5,342.5 C 559.5,348.167 559.5,353.833 559.5,359.5C 558.034,360.347 557.2,361.68 557,363.5C 556.517,362.552 556.351,361.552 556.5,360.5C 553.855,360.661 551.522,361.328 549.5,362.5C 547.471,361.449 545.637,360.115 544,358.5C 542.278,358.611 542.112,359.111 543.5,360C 542.397,362.969 541.064,363.136 539.5,360.5C 538.758,362.108 538.591,363.775 539,365.5C 538,365.167 537,364.833 536,364.5C 535.667,365.167 535.333,365.833 535,366.5C 533.562,365.1 532.729,363.433 532.5,361.5C 529.916,361.569 527.916,362.735 526.5,365C 527.167,365.333 527.833,365.667 528.5,366C 524.636,368.339 523.636,367.339 525.5,363C 524.258,362.689 523.258,363.189 522.5,364.5C 522.167,363.833 521.833,363.167 521.5,362.5C 520.719,363.729 520.219,365.062 520,366.5C 518.002,365.729 516.335,366.395 515,368.5C 513.667,364.5 512.333,364.5 511,368.5C 510.147,366.875 509.147,366.542 508,367.5C 506.513,366.747 506.346,365.914 507.5,365C 506.065,365.311 504.732,365.145 503.5,364.5C 503.628,366.129 502.628,367.462 500.5,368.5C 499.201,367.91 498.368,366.91 498,365.5C 497.798,367.256 497.298,368.922 496.5,370.5C 496.446,369.313 496.113,367.98 495.5,366.5C 494.167,367.833 492.833,369.167 491.5,370.5C 491.693,369.312 491.193,367.978 490,366.5C 488.66,367.868 487.326,369.201 486,370.5C 483.833,369.919 481.833,370.586 480,372.5C 479.5,372 479,371.5 478.5,371C 479.517,369.951 479.684,368.784 479,367.5C 478.385,369.116 477.385,370.449 476,371.5C 475.667,370.833 475.333,370.167 475,369.5C 473.488,370.257 472.154,371.257 471,372.5C 470.581,371.328 469.915,370.328 469,369.5C 468.583,370.756 467.75,371.423 466.5,371.5C 466.5,366.5 466.5,361.5 466.5,356.5C 467.481,354.691 468.981,353.357 471,352.5C 471.333,352.833 471.667,353.167 472,353.5C 472.333,352.167 472.667,350.833 473,349.5C 475.038,351.072 477.371,352.072 480,352.5C 481.154,350.043 482.488,350.043 484,352.5C 484.419,351.328 485.085,350.328 486,349.5C 487.063,350.438 488.23,351.438 489.5,352.5C 490.386,351.675 490.719,350.675 490.5,349.5C 491.873,349.343 493.207,349.51 494.5,350C 493.346,350.914 493.513,351.747 495,352.5C 495.667,351.167 496.333,349.833 497,348.5C 497.333,348.833 497.667,349.167 498,349.5C 499.791,347.487 501.125,347.487 502,349.5C 504.436,345.621 505.936,345.621 506.5,349.5C 508.042,348.253 509.542,348.253 511,349.5C 511.915,348.672 512.581,347.672 513,346.5C 516.102,346.783 519.102,346.783 522,346.5C 523.61,348.531 525.443,348.531 527.5,346.5C 529.926,346.686 532.426,346.686 535,346.5C 535.333,347.5 535.667,348.5 536,349.5C 536.192,347.423 536.692,345.423 537.5,343.5C 538.251,344.376 538.751,345.376 539,346.5C 541.333,344.833 543.667,343.167 546,341.5C 547.667,344.167 549.333,344.167 551,341.5C 552.667,344.167 554.333,344.167 556,341.5C 556.333,342.167 556.667,342.833 557,343.5C 557.671,342.748 558.504,342.414 559.5,342.5 Z"/></g>
<g><path style="opacity:1" fill="#e8caf6" d="M 559.5,359.5 C 559.5,370.5 559.5,381.5 559.5,392.5C 556.592,391.841 556.258,391.007 558.5,390C 556.792,388.938 556.126,387.771 556.5,386.5C 555.522,386.977 554.689,387.643 554,388.5C 553.915,390.085 553.749,391.418 553.5,392.5C 552.572,390.665 551.406,390.332 550,391.5C 549.374,389.009 548.541,389.009 547.5,391.5C 545.356,390.047 543.523,390.38 542,392.5C 541.085,391.672 540.419,390.672 540,389.5C 538.604,391.527 536.938,391.86 535,390.5C 534.405,394.082 533.071,394.416 531,391.5C 529.451,394.003 527.784,394.003 526,391.5C 523.211,394.129 521.211,393.462 520,389.5C 519.383,390.449 519.549,391.282 520.5,392C 518.875,392.853 518.542,393.853 519.5,395C 518.421,395.956 517.255,396.789 516,397.5C 515.544,396.256 516.044,395.423 517.5,395C 516.747,393.513 515.914,393.346 515,394.5C 514.667,393.833 514.333,393.167 514,392.5C 513.213,393.711 512.546,394.711 512,395.5C 509.254,391.647 507.087,391.813 505.5,396C 507.158,396.725 507.658,397.892 507,399.5C 505.647,398.315 504.48,396.981 503.5,395.5C 502.895,396.587 503.228,397.754 504.5,399C 503.5,399.667 502.5,399.667 501.5,399C 502.641,398.259 502.641,397.425 501.5,396.5C 500.372,395.738 499.205,395.071 498,394.5C 496.783,395.386 495.449,396.386 494,397.5C 493.517,396.552 493.351,395.552 493.5,394.5C 491.058,394.354 490.391,395.187 491.5,397C 489.693,398.236 487.693,398.57 485.5,398C 485.833,398.333 486.167,398.667 486.5,399C 482.796,400.071 479.129,400.238 475.5,399.5C 474.522,399.977 473.689,400.643 473,401.5C 471.902,400.033 470.402,399.199 468.5,399C 468.833,398.667 469.167,398.333 469.5,398C 468.552,397.517 467.552,397.351 466.5,397.5C 466.5,388.833 466.5,380.167 466.5,371.5C 467.75,371.423 468.583,370.756 469,369.5C 469.915,370.328 470.581,371.328 471,372.5C 472.154,371.257 473.488,370.257 475,369.5C 475.333,370.167 475.667,370.833 476,371.5C 477.385,370.449 478.385,369.116 479,367.5C 479.684,368.784 479.517,369.951 478.5,371C 479,371.5 479.5,372 480,372.5C 481.833,370.586 483.833,369.919 486,370.5C 487.326,369.201 488.66,367.868 490,366.5C 491.193,367.978 491.693,369.312 491.5,370.5C 492.833,369.167 494.167,367.833 495.5,366.5C 496.113,367.98 496.446,369.313 496.5,370.5C 497.298,368.922 497.798,367.256 498,365.5C 498.368,366.91 499.201,367.91 500.5,368.5C 502.628,367.462 503.628,366.129 503.5,364.5C 504.732,365.145 506.065,365.311 507.5,365C 506.346,365.914 506.513,366.747 508,367.5C 509.147,366.542 510.147,366.875 511,368.5C 512.333,364.5 513.667,364.5 515,368.5C 516.335,366.395 518.002,365.729 520,366.5C 520.219,365.062 520.719,363.729 521.5,362.5C 521.833,363.167 522.167,363.833 522.5,364.5C 523.258,363.189 524.258,362.689 525.5,363C 523.636,367.339 524.636,368.339 528.5,366C 527.833,365.667 527.167,365.333 526.5,365C 527.916,362.735 529.916,361.569 532.5,361.5C 532.729,363.433 533.562,365.1 535,366.5C 535.333,365.833 535.667,365.167 536,364.5C 537,364.833 538,365.167 539,365.5C 538.591,363.775 538.758,362.108 539.5,360.5C 541.064,363.136 542.397,362.969 543.5,360C 542.112,359.111 542.278,358.611 544,358.5C 545.637,360.115 547.471,361.449 549.5,362.5C 551.522,361.328 553.855,360.661 556.5,360.5C 556.351,361.552 556.517,362.552 557,363.5C 557.2,361.68 558.034,360.347 559.5,359.5 Z"/></g>
<g><path style="opacity:1" fill="#e5cdf2" d="M 559.5,392.5 C 559.5,398.167 559.5,403.833 559.5,409.5C 557.83,409.751 556.33,410.418 555,411.5C 554.667,410.5 554.333,409.5 554,408.5C 551.694,413.689 549.694,413.689 548,408.5C 547.517,409.448 547.351,410.448 547.5,411.5C 544.412,411.623 541.745,410.623 539.5,408.5C 538.707,409.355 539.04,410.189 540.5,411C 539.464,412.617 538.297,412.784 537,411.5C 534.898,413.973 535.232,414.64 538,413.5C 539.257,413.85 539.591,414.517 539,415.5C 537.701,415.034 536.201,415.034 534.5,415.5C 534.649,414.448 534.483,413.448 534,412.5C 532.417,412.493 530.751,412.826 529,413.5C 523.573,409.958 519.906,411.291 518,417.5C 517.641,414.456 516.974,414.122 516,416.5C 513.909,415.5 512.243,416.167 511,418.5C 510.333,417.167 509.333,416.167 508,415.5C 505.258,419.357 503.924,419.357 504,415.5C 502.984,416.634 502.317,416.301 502,414.5C 501.15,415.424 500.15,415.424 499,414.5C 497.662,415.506 496.329,416.506 495,417.5C 494.667,416.833 494.333,416.167 494,415.5C 493.5,417.333 492.333,418.5 490.5,419C 490.833,419.333 491.167,419.667 491.5,420C 490.256,420.456 489.423,419.956 489,418.5C 487.667,422.5 486.333,422.5 485,418.5C 484.751,419.624 484.251,420.624 483.5,421.5C 482.304,421.154 482.304,420.654 483.5,420C 482.069,419.535 480.903,418.701 480,417.5C 479.333,420.167 478.667,420.167 478,417.5C 477.887,419.974 476.887,421.974 475,423.5C 474.333,420.833 473.667,420.833 473,423.5C 471.341,421.216 469.174,419.549 466.5,418.5C 466.5,411.5 466.5,404.5 466.5,397.5C 467.552,397.351 468.552,397.517 469.5,398C 469.167,398.333 468.833,398.667 468.5,399C 470.402,399.199 471.902,400.033 473,401.5C 473.689,400.643 474.522,399.977 475.5,399.5C 479.129,400.238 482.796,400.071 486.5,399C 486.167,398.667 485.833,398.333 485.5,398C 487.693,398.57 489.693,398.236 491.5,397C 490.391,395.187 491.058,394.354 493.5,394.5C 493.351,395.552 493.517,396.552 494,397.5C 495.449,396.386 496.783,395.386 498,394.5C 499.205,395.071 500.372,395.738 501.5,396.5C 502.641,397.425 502.641,398.259 501.5,399C 502.5,399.667 503.5,399.667 504.5,399C 503.228,397.754 502.895,396.587 503.5,395.5C 504.48,396.981 505.647,398.315 507,399.5C 507.658,397.892 507.158,396.725 505.5,396C 507.087,391.813 509.254,391.647 512,395.5C 512.546,394.711 513.213,393.711 514,392.5C 514.333,393.167 514.667,393.833 515,394.5C 515.914,393.346 516.747,393.513 517.5,395C 516.044,395.423 515.544,396.256 516,397.5C 517.255,396.789 518.421,395.956 519.5,395C 518.542,393.853 518.875,392.853 520.5,392C 519.549,391.282 519.383,390.449 520,389.5C 521.211,393.462 523.211,394.129 526,391.5C 527.784,394.003 529.451,394.003 531,391.5C 533.071,394.416 534.405,394.082 535,390.5C 536.938,391.86 538.604,391.527 540,389.5C 540.419,390.672 541.085,391.672 542,392.5C 543.523,390.38 545.356,390.047 547.5,391.5C 548.541,389.009 549.374,389.009 550,391.5C 551.406,390.332 552.572,390.665 553.5,392.5C 553.749,391.418 553.915,390.085 554,388.5C 554.689,387.643 555.522,386.977 556.5,386.5C 556.126,387.771 556.792,388.938 558.5,390C 556.258,391.007 556.592,391.841 559.5,392.5 Z"/></g>
<g><path style="opacity:1" fill="#e2cff0" d="M 559.5,409.5 C 559.5,414.833 559.5,420.167 559.5,425.5C 556.529,426.815 553.529,426.815 550.5,425.5C 549.205,426.098 547.872,426.598 546.5,427C 547.696,427.654 547.696,428.154 546.5,428.5C 545.186,427.687 544.019,426.687 543,425.5C 541.11,428.52 538.61,429.186 535.5,427.5C 533.971,427.529 532.804,428.196 532,429.5C 530.57,429.306 529.07,429.306 527.5,429.5C 526.522,429.023 525.689,428.357 525,427.5C 523.959,429.585 522.459,431.252 520.5,432.5C 518.866,432.032 517.7,431.032 517,429.5C 516.667,430.167 516.333,430.833 516,431.5C 513.891,431.434 511.725,431.101 509.5,430.5C 509.511,431.441 509.011,432.108 508,432.5C 504.186,431.688 500.519,431.688 497,432.5C 494.57,436.477 492.57,436.144 491,431.5C 489.829,432.893 488.329,433.727 486.5,434C 487.696,434.654 487.696,435.154 486.5,435.5C 484.833,434.833 483.167,434.167 481.5,433.5C 481.891,434.891 481.058,435.891 479,436.5C 478.667,435.833 478.333,435.167 478,434.5C 475.676,435.105 473.343,435.772 471,436.5C 470.333,435.833 469.667,435.167 469,434.5C 468.623,435.942 467.79,436.942 466.5,437.5C 466.5,431.167 466.5,424.833 466.5,418.5C 469.174,419.549 471.341,421.216 473,423.5C 473.667,420.833 474.333,420.833 475,423.5C 476.887,421.974 477.887,419.974 478,417.5C 478.667,420.167 479.333,420.167 480,417.5C 480.903,418.701 482.069,419.535 483.5,420C 482.304,420.654 482.304,421.154 483.5,421.5C 484.251,420.624 484.751,419.624 485,418.5C 486.333,422.5 487.667,422.5 489,418.5C 489.423,419.956 490.256,420.456 491.5,420C 491.167,419.667 490.833,419.333 490.5,419C 492.333,418.5 493.5,417.333 494,415.5C 494.333,416.167 494.667,416.833 495,417.5C 496.329,416.506 497.662,415.506 499,414.5C 500.15,415.424 501.15,415.424 502,414.5C 502.317,416.301 502.984,416.634 504,415.5C 503.924,419.357 505.258,419.357 508,415.5C 509.333,416.167 510.333,417.167 511,418.5C 512.243,416.167 513.909,415.5 516,416.5C 516.974,414.122 517.641,414.456 518,417.5C 519.906,411.291 523.573,409.958 529,413.5C 530.751,412.826 532.417,412.493 534,412.5C 534.483,413.448 534.649,414.448 534.5,415.5C 536.201,415.034 537.701,415.034 539,415.5C 539.591,414.517 539.257,413.85 538,413.5C 535.232,414.64 534.898,413.973 537,411.5C 538.297,412.784 539.464,412.617 540.5,411C 539.04,410.189 538.707,409.355 539.5,408.5C 541.745,410.623 544.412,411.623 547.5,411.5C 547.351,410.448 547.517,409.448 548,408.5C 549.694,413.689 551.694,413.689 554,408.5C 554.333,409.5 554.667,410.5 555,411.5C 556.33,410.418 557.83,409.751 559.5,409.5 Z"/></g>
<g><path style="opacity:1" fill="#ddd2ed" d="M 559.5,425.5 C 559.5,433.167 559.5,440.833 559.5,448.5C 558.518,447.859 557.518,447.193 556.5,446.5C 555.5,447.167 554.5,447.833 553.5,448.5C 550.393,447.385 547.226,447.385 544,448.5C 542.166,450.756 540.499,450.756 539,448.5C 538.085,449.328 537.419,450.328 537,451.5C 535.667,450.167 534.333,450.167 533,451.5C 532,450.833 531,450.167 530,449.5C 528.155,451.087 526.155,452.421 524,453.5C 520.513,453.985 517.18,453.318 514,451.5C 513.683,453.301 513.016,453.634 512,452.5C 510.667,453.167 509.333,453.833 508,454.5C 507.667,453.833 507.333,453.167 507,452.5C 505.846,453.743 504.512,454.743 503,455.5C 501.602,454.949 500.268,454.616 499,454.5C 498.667,455.167 498.333,455.833 498,456.5C 496.667,452.5 495.333,452.5 494,456.5C 493.667,455.833 493.333,455.167 493,454.5C 491.992,454.982 490.825,455.148 489.5,455C 490.673,458.11 490.173,458.277 488,455.5C 486.667,456.167 485.667,457.167 485,458.5C 484,457.5 483,456.5 482,455.5C 479.822,458.014 477.156,458.681 474,457.5C 472.149,459.781 470.482,459.781 469,457.5C 468.292,458.381 467.458,459.047 466.5,459.5C 466.5,452.167 466.5,444.833 466.5,437.5C 467.79,436.942 468.623,435.942 469,434.5C 469.667,435.167 470.333,435.833 471,436.5C 473.343,435.772 475.676,435.105 478,434.5C 478.333,435.167 478.667,435.833 479,436.5C 481.058,435.891 481.891,434.891 481.5,433.5C 483.167,434.167 484.833,434.833 486.5,435.5C 487.696,435.154 487.696,434.654 486.5,434C 488.329,433.727 489.829,432.893 491,431.5C 492.57,436.144 494.57,436.477 497,432.5C 500.519,431.688 504.186,431.688 508,432.5C 509.011,432.108 509.511,431.441 509.5,430.5C 511.725,431.101 513.891,431.434 516,431.5C 516.333,430.833 516.667,430.167 517,429.5C 517.7,431.032 518.866,432.032 520.5,432.5C 522.459,431.252 523.959,429.585 525,427.5C 525.689,428.357 526.522,429.023 527.5,429.5C 529.07,429.306 530.57,429.306 532,429.5C 532.804,428.196 533.971,427.529 535.5,427.5C 538.61,429.186 541.11,428.52 543,425.5C 544.019,426.687 545.186,427.687 546.5,428.5C 547.696,428.154 547.696,427.654 546.5,427C 547.872,426.598 549.205,426.098 550.5,425.5C 553.529,426.815 556.529,426.815 559.5,425.5 Z"/></g>
<g><path style="opacity:1" fill="#d7d4eb" d="M 559.5,448.5 C 559.5,454.167 559.5,459.833 559.5,465.5C 556.525,465.307 554.025,466.307 552,468.5C 549.564,467.073 547.064,467.406 544.5,469.5C 542.941,468.926 541.441,468.26 540,467.5C 538.654,470.249 537.32,470.583 536,468.5C 533.396,471.774 530.563,472.107 527.5,469.5C 525.417,471.604 523.083,471.938 520.5,470.5C 519.808,471.025 519.308,471.692 519,472.5C 515.997,471.91 512.997,471.577 510,471.5C 507.334,473.57 504.501,474.236 501.5,473.5C 500.353,473.818 499.519,474.484 499,475.5C 497.333,474.167 495.667,474.167 494,475.5C 493.692,474.692 493.192,474.025 492.5,473.5C 491.5,474.167 490.5,474.833 489.5,475.5C 487.632,475.054 485.799,474.721 484,474.5C 481.934,477.176 479.434,477.843 476.5,476.5C 475.353,476.818 474.519,477.484 474,478.5C 471.636,477.522 469.136,476.856 466.5,476.5C 466.5,470.833 466.5,465.167 466.5,459.5C 467.458,459.047 468.292,458.381 469,457.5C 470.482,459.781 472.149,459.781 474,457.5C 477.156,458.681 479.822,458.014 482,455.5C 483,456.5 484,457.5 485,458.5C 485.667,457.167 486.667,456.167 488,455.5C 490.173,458.277 490.673,458.11 489.5,455C 490.825,455.148 491.992,454.982 493,454.5C 493.333,455.167 493.667,455.833 494,456.5C 495.333,452.5 496.667,452.5 498,456.5C 498.333,455.833 498.667,455.167 499,454.5C 500.268,454.616 501.602,454.949 503,455.5C 504.512,454.743 505.846,453.743 507,452.5C 507.333,453.167 507.667,453.833 508,454.5C 509.333,453.833 510.667,453.167 512,452.5C 513.016,453.634 513.683,453.301 514,451.5C 517.18,453.318 520.513,453.985 524,453.5C 526.155,452.421 528.155,451.087 530,449.5C 531,450.167 532,450.833 533,451.5C 534.333,450.167 535.667,450.167 537,451.5C 537.419,450.328 538.085,449.328 539,448.5C 540.499,450.756 542.166,450.756 544,448.5C 547.226,447.385 550.393,447.385 553.5,448.5C 554.5,447.833 555.5,447.167 556.5,446.5C 557.518,447.193 558.518,447.859 559.5,448.5 Z"/></g>
<g><path style="opacity:1" fill="#d1d7e9" d="M 559.5,465.5 C 559.5,471.167 559.5,476.833 559.5,482.5C 557.581,484.522 555.414,484.856 553,483.5C 551.691,485.891 550.691,485.891 550,483.5C 549.667,484.5 549.333,485.5 549,486.5C 547.34,486.676 545.674,486.009 544,484.5C 542.526,487.325 541.026,487.658 539.5,485.5C 538.522,485.977 537.689,486.643 537,487.5C 536.333,484.833 535.667,484.833 535,487.5C 531.24,488.548 527.406,488.548 523.5,487.5C 522.353,487.818 521.519,488.484 521,489.5C 519.467,489.056 517.967,488.723 516.5,488.5C 515.522,488.977 514.689,489.643 514,490.5C 513.692,489.692 513.192,489.025 512.5,488.5C 510.265,489.705 508.099,490.705 506,491.5C 503.667,490.833 501.333,490.167 499,489.5C 498.16,492.464 497.16,492.797 496,490.5C 495.311,491.357 494.478,492.023 493.5,492.5C 490.968,492.086 488.468,491.752 486,491.5C 484.921,493.394 483.587,493.727 482,492.5C 481.667,493.167 481.333,493.833 481,494.5C 478.63,493.872 476.297,493.539 474,493.5C 473.333,496.167 472.667,496.167 472,493.5C 471,494.167 470,494.833 469,495.5C 468.583,494.244 467.75,493.577 466.5,493.5C 466.5,487.833 466.5,482.167 466.5,476.5C 469.136,476.856 471.636,477.522 474,478.5C 474.519,477.484 475.353,476.818 476.5,476.5C 479.434,477.843 481.934,477.176 484,474.5C 485.799,474.721 487.632,475.054 489.5,475.5C 490.5,474.833 491.5,474.167 492.5,473.5C 493.192,474.025 493.692,474.692 494,475.5C 495.667,474.167 497.333,474.167 499,475.5C 499.519,474.484 500.353,473.818 501.5,473.5C 504.501,474.236 507.334,473.57 510,471.5C 512.997,471.577 515.997,471.91 519,472.5C 519.308,471.692 519.808,471.025 520.5,470.5C 523.083,471.938 525.417,471.604 527.5,469.5C 530.563,472.107 533.396,471.774 536,468.5C 537.32,470.583 538.654,470.249 540,467.5C 541.441,468.26 542.941,468.926 544.5,469.5C 547.064,467.406 549.564,467.073 552,468.5C 554.025,466.307 556.525,465.307 559.5,465.5 Z"/></g>
<g><path style="opacity:1" fill="#ccd9e8" d="M 559.5,482.5 C 559.5,486.833 559.5,491.167 559.5,495.5C 558.778,495.918 558.278,496.584 558,497.5C 557.107,496.289 556.274,496.289 555.5,497.5C 554.359,498.425 554.359,499.259 555.5,500C 554.552,500.483 553.552,500.649 552.5,500.5C 552.307,496.551 551.807,496.551 551,500.5C 549.57,500.306 548.07,500.306 546.5,500.5C 544.742,499.872 543.242,498.872 542,497.5C 538.943,499.092 535.943,500.759 533,502.5C 532.689,501.258 533.189,500.258 534.5,499.5C 533.229,499.874 532.062,499.208 531,497.5C 530.667,498.833 530.333,500.167 530,501.5C 529.667,501.167 529.333,500.833 529,500.5C 527.863,501.364 526.53,502.364 525,503.5C 524.333,500.833 523.667,500.833 523,503.5C 521.983,500.972 520.816,500.972 519.5,503.5C 518.306,500.381 516.806,500.048 515,502.5C 514.586,502.043 514.086,501.709 513.5,501.5C 512.573,503.113 511.739,504.779 511,506.5C 510,504.833 509,503.167 508,501.5C 507.646,503.807 506.646,504.141 505,502.5C 503.108,502.777 501.775,503.777 501,505.5C 500.581,504.328 499.915,503.328 499,502.5C 498.667,504.5 498.333,506.5 498,508.5C 497.5,508 497,507.5 496.5,507C 497.517,505.951 497.684,504.784 497,503.5C 495.413,504.727 494.079,504.394 493,502.5C 492.641,505.544 491.974,505.878 491,503.5C 490.692,504.308 490.192,504.975 489.5,505.5C 488.685,503.724 487.518,503.057 486,503.5C 486.281,510.171 485.281,510.171 483,503.5C 482.64,505.608 481.973,507.608 481,509.5C 480.489,507.122 479.822,504.788 479,502.5C 478.714,504.999 478.881,507.165 479.5,509C 478.004,509.507 476.837,509.007 476,507.5C 475.667,508.167 475.333,508.833 475,509.5C 474.612,508.572 473.945,507.905 473,507.5C 471.022,508.906 468.855,509.906 466.5,510.5C 466.5,504.833 466.5,499.167 466.5,493.5C 467.75,493.577 468.583,494.244 469,495.5C 470,494.833 471,494.167 472,493.5C 472.667,496.167 473.333,496.167 474,493.5C 476.297,493.539 478.63,493.872 481,494.5C 481.333,493.833 481.667,493.167 482,492.5C 483.587,493.727 484.921,493.394 486,491.5C 488.468,491.752 490.968,492.086 493.5,492.5C 494.478,492.023 495.311,491.357 496,490.5C 497.16,492.797 498.16,492.464 499,489.5C 501.333,490.167 503.667,490.833 506,491.5C 508.099,490.705 510.265,489.705 512.5,488.5C 513.192,489.025 513.692,489.692 514,490.5C 514.689,489.643 515.522,488.977 516.5,488.5C 517.967,488.723 519.467,489.056 521,489.5C 521.519,488.484 522.353,487.818 523.5,487.5C 527.406,488.548 531.24,488.548 535,487.5C 535.667,484.833 536.333,484.833 537,487.5C 537.689,486.643 538.522,485.977 539.5,485.5C 541.026,487.658 542.526,487.325 544,484.5C 545.674,486.009 547.34,486.676 549,486.5C 549.333,485.5 549.667,484.5 550,483.5C 550.691,485.891 551.691,485.891 553,483.5C 555.414,484.856 557.581,484.522 559.5,482.5 Z"/></g>
<g><path style="opacity:1" fill="#c5dbe6" d="M 559.5,495.5 C 559.5,502.167 559.5,508.833 559.5,515.5C 558.504,515.414 557.671,515.748 557,516.5C 556.333,515.833 555.667,515.167 555,514.5C 553.667,515.833 552.333,515.833 551,514.5C 550,518.167 548.333,518.5 546,515.5C 545.667,516.167 545.333,516.833 545,517.5C 539,516.331 532.5,516.998 525.5,519.5C 523.844,517.978 522.677,518.311 522,520.5C 517.013,521.154 511.847,521.154 506.5,520.5C 505.522,520.977 504.689,521.643 504,522.5C 502.111,521.911 500.111,521.577 498,521.5C 497.333,522.167 496.667,522.833 496,523.5C 493,523.167 490,522.833 487,522.5C 486.333,523.167 485.667,523.833 485,524.5C 482.448,524.869 479.781,524.869 477,524.5C 473.496,526.255 469.996,526.589 466.5,525.5C 466.5,520.5 466.5,515.5 466.5,510.5C 468.855,509.906 471.022,508.906 473,507.5C 473.945,507.905 474.612,508.572 475,509.5C 475.333,508.833 475.667,508.167 476,507.5C 476.837,509.007 478.004,509.507 479.5,509C 478.881,507.165 478.714,504.999 479,502.5C 479.822,504.788 480.489,507.122 481,509.5C 481.973,507.608 482.64,505.608 483,503.5C 485.281,510.171 486.281,510.171 486,503.5C 487.518,503.057 488.685,503.724 489.5,505.5C 490.192,504.975 490.692,504.308 491,503.5C 491.974,505.878 492.641,505.544 493,502.5C 494.079,504.394 495.413,504.727 497,503.5C 497.684,504.784 497.517,505.951 496.5,507C 497,507.5 497.5,508 498,508.5C 498.333,506.5 498.667,504.5 499,502.5C 499.915,503.328 500.581,504.328 501,505.5C 501.775,503.777 503.108,502.777 505,502.5C 506.646,504.141 507.646,503.807 508,501.5C 509,503.167 510,504.833 511,506.5C 511.739,504.779 512.573,503.113 513.5,501.5C 514.086,501.709 514.586,502.043 515,502.5C 516.806,500.048 518.306,500.381 519.5,503.5C 520.816,500.972 521.983,500.972 523,503.5C 523.667,500.833 524.333,500.833 525,503.5C 526.53,502.364 527.863,501.364 529,500.5C 529.333,500.833 529.667,501.167 530,501.5C 530.333,500.167 530.667,498.833 531,497.5C 532.062,499.208 533.229,499.874 534.5,499.5C 533.189,500.258 532.689,501.258 533,502.5C 535.943,500.759 538.943,499.092 542,497.5C 543.242,498.872 544.742,499.872 546.5,500.5C 548.07,500.306 549.57,500.306 551,500.5C 551.807,496.551 552.307,496.551 552.5,500.5C 553.552,500.649 554.552,500.483 555.5,500C 554.359,499.259 554.359,498.425 555.5,497.5C 556.274,496.289 557.107,496.289 558,497.5C 558.278,496.584 558.778,495.918 559.5,495.5 Z"/></g>
<g><path style="opacity:1" fill="#bedbe4" d="M 559.5,515.5 C 559.66,517.199 559.494,518.866 559,520.5C 556.267,523.062 553.767,525.729 551.5,528.5C 551.44,527.957 551.107,527.624 550.5,527.5C 548.389,528.949 546.056,529.949 543.5,530.5C 539.879,530.573 536.379,530.24 533,529.5C 532.692,530.308 532.192,530.975 531.5,531.5C 528.3,531.434 525.133,531.434 522,531.5C 520.233,533.64 518.233,533.973 516,532.5C 514.289,532.439 512.956,533.106 512,534.5C 511.311,533.643 510.478,532.977 509.5,532.5C 506.564,533.694 503.73,534.694 501,535.5C 498.379,535.299 495.712,534.966 493,534.5C 485.847,536.541 478.847,538.208 472,539.5C 471,538.833 470,538.167 469,537.5C 468.583,538.756 467.75,539.423 466.5,539.5C 466.5,534.833 466.5,530.167 466.5,525.5C 469.996,526.589 473.496,526.255 477,524.5C 479.781,524.869 482.448,524.869 485,524.5C 485.667,523.833 486.333,523.167 487,522.5C 490,522.833 493,523.167 496,523.5C 496.667,522.833 497.333,522.167 498,521.5C 500.111,521.577 502.111,521.911 504,522.5C 504.689,521.643 505.522,520.977 506.5,520.5C 511.847,521.154 517.013,521.154 522,520.5C 522.677,518.311 523.844,517.978 525.5,519.5C 532.5,516.998 539,516.331 545,517.5C 545.333,516.833 545.667,516.167 546,515.5C 548.333,518.5 550,518.167 551,514.5C 552.333,515.833 553.667,515.833 555,514.5C 555.667,515.167 556.333,515.833 557,516.5C 557.671,515.748 558.504,515.414 559.5,515.5 Z"/></g>
<g><path style="opacity:1" fill="#b8dbe2" d="M 551.5,528.5 C 547.511,533.821 543.178,538.821 538.5,543.5C 538.217,542.711 537.717,542.044 537,541.5C 535.33,543.698 533.33,544.032 531,542.5C 529.667,545.167 528.333,545.167 527,542.5C 526.333,543.167 525.667,543.833 525,544.5C 523.093,544.579 521.093,544.246 519,543.5C 518.692,544.308 518.192,544.975 517.5,545.5C 515.641,545.888 513.641,545.888 511.5,545.5C 510.522,545.977 509.689,546.643 509,547.5C 508.667,546.833 508.333,546.167 508,545.5C 507.333,546.833 506.667,546.833 506,545.5C 504.196,547.419 502.196,547.752 500,546.5C 499.055,546.905 498.388,547.572 498,548.5C 497.333,547.833 496.667,547.167 496,546.5C 494.384,547.545 492.717,548.545 491,549.5C 488.658,548.822 486.324,549.155 484,550.5C 483.333,547.833 482.667,547.833 482,550.5C 478.877,548.179 475.877,548.513 473,551.5C 472.667,550.833 472.333,550.167 472,549.5C 471,550.5 470,551.5 469,552.5C 468.329,551.748 467.496,551.414 466.5,551.5C 466.5,547.5 466.5,543.5 466.5,539.5C 467.75,539.423 468.583,538.756 469,537.5C 470,538.167 471,538.833 472,539.5C 478.847,538.208 485.847,536.541 493,534.5C 495.712,534.966 498.379,535.299 501,535.5C 503.73,534.694 506.564,533.694 509.5,532.5C 510.478,532.977 511.311,533.643 512,534.5C 512.956,533.106 514.289,532.439 516,532.5C 518.233,533.973 520.233,533.64 522,531.5C 525.133,531.434 528.3,531.434 531.5,531.5C 532.192,530.975 532.692,530.308 533,529.5C 536.379,530.24 539.879,530.573 543.5,530.5C 546.056,529.949 548.389,528.949 550.5,527.5C 551.107,527.624 551.44,527.957 551.5,528.5 Z"/></g>
<g><path style="opacity:1" fill="#b1dce0" d="M 538.5,543.5 C 533.509,549.823 528.176,555.823 522.5,561.5C 522.25,560.078 521.417,559.078 520,558.5C 517.787,559.802 515.454,560.802 513,561.5C 512.667,560.833 512.333,560.167 512,559.5C 508.796,559.98 505.463,560.98 502,562.5C 499.973,561.268 498.64,561.602 498,563.5C 497.333,562.833 496.667,562.167 496,561.5C 492.646,562.959 489.313,563.959 486,564.5C 484.32,563.397 482.82,563.73 481.5,565.5C 480.5,564.833 479.5,564.167 478.5,563.5C 477.5,564.167 476.5,564.833 475.5,565.5C 472.531,565.803 469.531,565.803 466.5,565.5C 466.5,560.833 466.5,556.167 466.5,551.5C 467.496,551.414 468.329,551.748 469,552.5C 470,551.5 471,550.5 472,549.5C 472.333,550.167 472.667,550.833 473,551.5C 475.877,548.513 478.877,548.179 482,550.5C 482.667,547.833 483.333,547.833 484,550.5C 486.324,549.155 488.658,548.822 491,549.5C 492.717,548.545 494.384,547.545 496,546.5C 496.667,547.167 497.333,547.833 498,548.5C 498.388,547.572 499.055,546.905 500,546.5C 502.196,547.752 504.196,547.419 506,545.5C 506.667,546.833 507.333,546.833 508,545.5C 508.333,546.167 508.667,546.833 509,547.5C 509.689,546.643 510.522,545.977 511.5,545.5C 513.641,545.888 515.641,545.888 517.5,545.5C 518.192,544.975 518.692,544.308 519,543.5C 521.093,544.246 523.093,544.579 525,544.5C 525.667,543.833 526.333,543.167 527,542.5C 528.333,545.167 529.667,545.167 531,542.5C 533.33,544.032 535.33,543.698 537,541.5C 537.717,542.044 538.217,542.711 538.5,543.5 Z"/></g>
<g><path style="opacity:1" fill="#a6dcdc" d="M 522.5,561.5 C 513.51,572.488 504.177,583.155 494.5,593.5C 493.902,590.269 492.736,589.936 491,592.5C 489.883,592.335 488.716,592.002 487.5,591.5C 486.808,592.025 486.308,592.692 486,593.5C 485.15,592.576 484.15,592.576 483,593.5C 482.055,593.095 481.388,592.428 481,591.5C 478.521,594.683 475.854,595.016 473,592.5C 472.333,593.167 471.667,593.833 471,594.5C 469.701,594.034 468.201,594.034 466.5,594.5C 466.5,584.833 466.5,575.167 466.5,565.5C 469.531,565.803 472.531,565.803 475.5,565.5C 476.5,564.833 477.5,564.167 478.5,563.5C 479.5,564.167 480.5,564.833 481.5,565.5C 482.82,563.73 484.32,563.397 486,564.5C 489.313,563.959 492.646,562.959 496,561.5C 496.667,562.167 497.333,562.833 498,563.5C 498.64,561.602 499.973,561.268 502,562.5C 505.463,560.98 508.796,559.98 512,559.5C 512.333,560.167 512.667,560.833 513,561.5C 515.454,560.802 517.787,559.802 520,558.5C 521.417,559.078 522.25,560.078 522.5,561.5 Z"/></g>
<g><path style="opacity:1" fill="#9ddbd9" d="M 494.5,593.5 C 485.543,604.294 476.376,614.961 467,625.5C 466.5,615.172 466.334,604.839 466.5,594.5C 468.201,594.034 469.701,594.034 471,594.5C 471.667,593.833 472.333,593.167 473,592.5C 475.854,595.016 478.521,594.683 481,591.5C 481.388,592.428 482.055,593.095 483,593.5C 484.15,592.576 485.15,592.576 486,593.5C 486.308,592.692 486.808,592.025 487.5,591.5C 488.716,592.002 489.883,592.335 491,592.5C 492.736,589.936 493.902,590.269 494.5,593.5 Z"/></g>
</svg>
